<mxfile host="app.diagrams.net" modified="2023-06-07T17:14:46.277Z" agent="Mozilla/5.0 (Windows NT 10.0; Win64; x64) AppleWebKit/537.36 (KHTML, like Gecko) Chrome/113.0.0.0 Safari/537.36" etag="jZW2FyzHZM4kV7O4ueSC" version="21.3.7" type="device" pages="5">
  <diagram name="Ejemplo 1" id="uFEQ30eHHeswEtYKAu2o">
    <mxGraphModel dx="880" dy="437" grid="1" gridSize="10" guides="1" tooltips="1" connect="1" arrows="1" fold="1" page="1" pageScale="1" pageWidth="827" pageHeight="1169" math="0" shadow="0">
      <root>
        <mxCell id="0" />
        <mxCell id="1" parent="0" />
        <mxCell id="go2boDGO3kF7dVmyAyb2-4" value="" style="edgeStyle=orthogonalEdgeStyle;rounded=0;orthogonalLoop=1;jettySize=auto;html=1;" edge="1" parent="1" source="go2boDGO3kF7dVmyAyb2-1" target="go2boDGO3kF7dVmyAyb2-3">
          <mxGeometry relative="1" as="geometry" />
        </mxCell>
        <mxCell id="go2boDGO3kF7dVmyAyb2-7" value="" style="edgeStyle=orthogonalEdgeStyle;rounded=0;orthogonalLoop=1;jettySize=auto;html=1;" edge="1" parent="1" source="go2boDGO3kF7dVmyAyb2-1" target="go2boDGO3kF7dVmyAyb2-6">
          <mxGeometry relative="1" as="geometry" />
        </mxCell>
        <mxCell id="go2boDGO3kF7dVmyAyb2-9" value="" style="edgeStyle=orthogonalEdgeStyle;rounded=0;orthogonalLoop=1;jettySize=auto;html=1;" edge="1" parent="1" source="go2boDGO3kF7dVmyAyb2-1" target="go2boDGO3kF7dVmyAyb2-8">
          <mxGeometry relative="1" as="geometry" />
        </mxCell>
        <mxCell id="go2boDGO3kF7dVmyAyb2-1" value="Persona" style="rounded=0;whiteSpace=wrap;html=1;" vertex="1" parent="1">
          <mxGeometry x="350" y="200" width="120" height="60" as="geometry" />
        </mxCell>
        <mxCell id="go2boDGO3kF7dVmyAyb2-3" value="nombre" style="ellipse;whiteSpace=wrap;html=1;rounded=0;" vertex="1" parent="1">
          <mxGeometry x="370" width="80" height="80" as="geometry" />
        </mxCell>
        <mxCell id="go2boDGO3kF7dVmyAyb2-6" value="apellido" style="ellipse;whiteSpace=wrap;html=1;rounded=0;" vertex="1" parent="1">
          <mxGeometry x="420" y="80" width="80" height="80" as="geometry" />
        </mxCell>
        <mxCell id="go2boDGO3kF7dVmyAyb2-8" value="Fecha de Nacimiento" style="ellipse;whiteSpace=wrap;html=1;rounded=0;" vertex="1" parent="1">
          <mxGeometry x="320" y="80" width="80" height="80" as="geometry" />
        </mxCell>
        <mxCell id="go2boDGO3kF7dVmyAyb2-17" value="" style="edgeStyle=orthogonalEdgeStyle;rounded=0;orthogonalLoop=1;jettySize=auto;html=1;" edge="1" parent="1" source="go2boDGO3kF7dVmyAyb2-10" target="go2boDGO3kF7dVmyAyb2-16">
          <mxGeometry relative="1" as="geometry" />
        </mxCell>
        <mxCell id="go2boDGO3kF7dVmyAyb2-20" value="" style="edgeStyle=orthogonalEdgeStyle;rounded=0;orthogonalLoop=1;jettySize=auto;html=1;" edge="1" parent="1" source="go2boDGO3kF7dVmyAyb2-10" target="go2boDGO3kF7dVmyAyb2-19">
          <mxGeometry relative="1" as="geometry" />
        </mxCell>
        <mxCell id="go2boDGO3kF7dVmyAyb2-22" value="" style="edgeStyle=orthogonalEdgeStyle;rounded=0;orthogonalLoop=1;jettySize=auto;html=1;" edge="1" parent="1" source="go2boDGO3kF7dVmyAyb2-10" target="go2boDGO3kF7dVmyAyb2-21">
          <mxGeometry relative="1" as="geometry" />
        </mxCell>
        <mxCell id="go2boDGO3kF7dVmyAyb2-10" value="Estudiante" style="rounded=0;whiteSpace=wrap;html=1;" vertex="1" parent="1">
          <mxGeometry x="280" y="310" width="120" height="60" as="geometry" />
        </mxCell>
        <mxCell id="go2boDGO3kF7dVmyAyb2-24" value="" style="edgeStyle=orthogonalEdgeStyle;rounded=0;orthogonalLoop=1;jettySize=auto;html=1;" edge="1" parent="1" source="go2boDGO3kF7dVmyAyb2-11" target="go2boDGO3kF7dVmyAyb2-23">
          <mxGeometry relative="1" as="geometry" />
        </mxCell>
        <mxCell id="go2boDGO3kF7dVmyAyb2-26" value="" style="edgeStyle=orthogonalEdgeStyle;rounded=0;orthogonalLoop=1;jettySize=auto;html=1;" edge="1" parent="1" source="go2boDGO3kF7dVmyAyb2-11" target="go2boDGO3kF7dVmyAyb2-25">
          <mxGeometry relative="1" as="geometry" />
        </mxCell>
        <mxCell id="go2boDGO3kF7dVmyAyb2-28" value="" style="edgeStyle=orthogonalEdgeStyle;rounded=0;orthogonalLoop=1;jettySize=auto;html=1;" edge="1" parent="1" source="go2boDGO3kF7dVmyAyb2-11" target="go2boDGO3kF7dVmyAyb2-27">
          <mxGeometry relative="1" as="geometry" />
        </mxCell>
        <mxCell id="go2boDGO3kF7dVmyAyb2-11" value="Profesor" style="rounded=0;whiteSpace=wrap;html=1;" vertex="1" parent="1">
          <mxGeometry x="440" y="310" width="120" height="60" as="geometry" />
        </mxCell>
        <mxCell id="go2boDGO3kF7dVmyAyb2-12" value="Extends" style="endArrow=block;endSize=16;endFill=0;html=1;rounded=0;exitX=0.5;exitY=0;exitDx=0;exitDy=0;entryX=0.25;entryY=1;entryDx=0;entryDy=0;" edge="1" parent="1" source="go2boDGO3kF7dVmyAyb2-10" target="go2boDGO3kF7dVmyAyb2-1">
          <mxGeometry width="160" relative="1" as="geometry">
            <mxPoint x="320" y="280" as="sourcePoint" />
            <mxPoint x="480" y="280" as="targetPoint" />
          </mxGeometry>
        </mxCell>
        <mxCell id="go2boDGO3kF7dVmyAyb2-13" value="Extends" style="endArrow=block;endSize=16;endFill=0;html=1;rounded=0;exitX=0.5;exitY=0;exitDx=0;exitDy=0;entryX=0.5;entryY=1;entryDx=0;entryDy=0;" edge="1" parent="1" source="go2boDGO3kF7dVmyAyb2-11" target="go2boDGO3kF7dVmyAyb2-1">
          <mxGeometry width="160" relative="1" as="geometry">
            <mxPoint x="350" y="320" as="sourcePoint" />
            <mxPoint x="390" y="270" as="targetPoint" />
          </mxGeometry>
        </mxCell>
        <mxCell id="go2boDGO3kF7dVmyAyb2-16" value="Nro Estudiante" style="ellipse;whiteSpace=wrap;html=1;rounded=0;" vertex="1" parent="1">
          <mxGeometry x="150" y="250" width="80" height="80" as="geometry" />
        </mxCell>
        <mxCell id="go2boDGO3kF7dVmyAyb2-19" value="Carrera" style="ellipse;whiteSpace=wrap;html=1;rounded=0;" vertex="1" parent="1">
          <mxGeometry x="150" y="350" width="80" height="80" as="geometry" />
        </mxCell>
        <mxCell id="go2boDGO3kF7dVmyAyb2-21" value="promedio" style="ellipse;whiteSpace=wrap;html=1;rounded=0;" vertex="1" parent="1">
          <mxGeometry x="60" y="300" width="80" height="80" as="geometry" />
        </mxCell>
        <mxCell id="go2boDGO3kF7dVmyAyb2-23" value="Nro de Empleado" style="ellipse;whiteSpace=wrap;html=1;rounded=0;" vertex="1" parent="1">
          <mxGeometry x="680" y="300" width="80" height="80" as="geometry" />
        </mxCell>
        <mxCell id="go2boDGO3kF7dVmyAyb2-25" value="Departamento" style="ellipse;whiteSpace=wrap;html=1;rounded=0;" vertex="1" parent="1">
          <mxGeometry x="600" y="350" width="80" height="80" as="geometry" />
        </mxCell>
        <mxCell id="go2boDGO3kF7dVmyAyb2-27" value="Titulo Academico" style="ellipse;whiteSpace=wrap;html=1;rounded=0;" vertex="1" parent="1">
          <mxGeometry x="600" y="250" width="80" height="80" as="geometry" />
        </mxCell>
      </root>
    </mxGraphModel>
  </diagram>
  <diagram id="ad0NVhjxh5jcgICa50yk" name="Ejemplo 2">
    <mxGraphModel dx="880" dy="437" grid="1" gridSize="10" guides="1" tooltips="1" connect="1" arrows="1" fold="1" page="1" pageScale="1" pageWidth="827" pageHeight="1169" math="0" shadow="0">
      <root>
        <mxCell id="0" />
        <mxCell id="1" parent="0" />
        <mxCell id="3PZVVZGDWUFXg_yI0EUF-3" value="" style="edgeStyle=orthogonalEdgeStyle;rounded=0;orthogonalLoop=1;jettySize=auto;html=1;" edge="1" parent="1" source="3PZVVZGDWUFXg_yI0EUF-1" target="3PZVVZGDWUFXg_yI0EUF-2">
          <mxGeometry relative="1" as="geometry" />
        </mxCell>
        <mxCell id="3PZVVZGDWUFXg_yI0EUF-5" value="" style="edgeStyle=orthogonalEdgeStyle;rounded=0;orthogonalLoop=1;jettySize=auto;html=1;" edge="1" parent="1" source="3PZVVZGDWUFXg_yI0EUF-1" target="3PZVVZGDWUFXg_yI0EUF-4">
          <mxGeometry relative="1" as="geometry" />
        </mxCell>
        <mxCell id="3PZVVZGDWUFXg_yI0EUF-7" value="" style="edgeStyle=orthogonalEdgeStyle;rounded=0;orthogonalLoop=1;jettySize=auto;html=1;" edge="1" parent="1" source="3PZVVZGDWUFXg_yI0EUF-1" target="3PZVVZGDWUFXg_yI0EUF-6">
          <mxGeometry relative="1" as="geometry" />
        </mxCell>
        <mxCell id="3PZVVZGDWUFXg_yI0EUF-1" value="Cuenta" style="html=1;whiteSpace=wrap;" vertex="1" parent="1">
          <mxGeometry x="360" y="210" width="110" height="50" as="geometry" />
        </mxCell>
        <mxCell id="3PZVVZGDWUFXg_yI0EUF-2" value="Nro de Cita" style="ellipse;whiteSpace=wrap;html=1;" vertex="1" parent="1">
          <mxGeometry x="334" y="90" width="80" height="80" as="geometry" />
        </mxCell>
        <mxCell id="3PZVVZGDWUFXg_yI0EUF-4" value="Saldo" style="ellipse;whiteSpace=wrap;html=1;" vertex="1" parent="1">
          <mxGeometry x="414" y="90" width="80" height="80" as="geometry" />
        </mxCell>
        <mxCell id="3PZVVZGDWUFXg_yI0EUF-19" style="edgeStyle=orthogonalEdgeStyle;rounded=0;orthogonalLoop=1;jettySize=auto;html=1;entryX=0;entryY=0.75;entryDx=0;entryDy=0;" edge="1" parent="1" source="3PZVVZGDWUFXg_yI0EUF-6" target="3PZVVZGDWUFXg_yI0EUF-10">
          <mxGeometry relative="1" as="geometry" />
        </mxCell>
        <mxCell id="3PZVVZGDWUFXg_yI0EUF-6" value="" style="triangle;whiteSpace=wrap;html=1;rotation=90;" vertex="1" parent="1">
          <mxGeometry x="385" y="290" width="60" height="80" as="geometry" />
        </mxCell>
        <mxCell id="3PZVVZGDWUFXg_yI0EUF-12" value="" style="edgeStyle=orthogonalEdgeStyle;rounded=0;orthogonalLoop=1;jettySize=auto;html=1;" edge="1" parent="1" source="3PZVVZGDWUFXg_yI0EUF-9" target="3PZVVZGDWUFXg_yI0EUF-11">
          <mxGeometry relative="1" as="geometry" />
        </mxCell>
        <mxCell id="3PZVVZGDWUFXg_yI0EUF-9" value="Cta_Ahorro" style="html=1;whiteSpace=wrap;" vertex="1" parent="1">
          <mxGeometry x="260" y="380" width="110" height="50" as="geometry" />
        </mxCell>
        <mxCell id="3PZVVZGDWUFXg_yI0EUF-14" value="" style="edgeStyle=orthogonalEdgeStyle;rounded=0;orthogonalLoop=1;jettySize=auto;html=1;" edge="1" parent="1" source="3PZVVZGDWUFXg_yI0EUF-10" target="3PZVVZGDWUFXg_yI0EUF-13">
          <mxGeometry relative="1" as="geometry" />
        </mxCell>
        <mxCell id="3PZVVZGDWUFXg_yI0EUF-10" value="Cta_Cheque" style="html=1;whiteSpace=wrap;" vertex="1" parent="1">
          <mxGeometry x="460" y="380" width="110" height="50" as="geometry" />
        </mxCell>
        <mxCell id="3PZVVZGDWUFXg_yI0EUF-11" value="TasaInteres" style="ellipse;whiteSpace=wrap;html=1;" vertex="1" parent="1">
          <mxGeometry x="275" y="470" width="80" height="80" as="geometry" />
        </mxCell>
        <mxCell id="3PZVVZGDWUFXg_yI0EUF-13" value="SaldoDeudor" style="ellipse;whiteSpace=wrap;html=1;" vertex="1" parent="1">
          <mxGeometry x="475" y="470" width="80" height="80" as="geometry" />
        </mxCell>
        <mxCell id="3PZVVZGDWUFXg_yI0EUF-18" style="edgeStyle=orthogonalEdgeStyle;rounded=0;orthogonalLoop=1;jettySize=auto;html=1;entryX=1;entryY=0.75;entryDx=0;entryDy=0;" edge="1" parent="1" source="3PZVVZGDWUFXg_yI0EUF-17" target="3PZVVZGDWUFXg_yI0EUF-9">
          <mxGeometry relative="1" as="geometry" />
        </mxCell>
        <mxCell id="3PZVVZGDWUFXg_yI0EUF-17" value="ISA" style="text;html=1;strokeColor=none;fillColor=none;align=center;verticalAlign=middle;whiteSpace=wrap;rounded=0;" vertex="1" parent="1">
          <mxGeometry x="385" y="310" width="60" height="30" as="geometry" />
        </mxCell>
      </root>
    </mxGraphModel>
  </diagram>
  <diagram id="B_7lz0TuEx84EbrW7Idd" name="Ejemplo 3">
    <mxGraphModel dx="880" dy="437" grid="1" gridSize="10" guides="1" tooltips="1" connect="1" arrows="1" fold="1" page="1" pageScale="1" pageWidth="827" pageHeight="1169" math="0" shadow="0">
      <root>
        <mxCell id="0" />
        <mxCell id="1" parent="0" />
        <mxCell id="D2Z485YcAmYLCviWvFQb-1" value="Animal" style="rounded=0;whiteSpace=wrap;html=1;" vertex="1" parent="1">
          <mxGeometry x="340" y="130" width="120" height="60" as="geometry" />
        </mxCell>
        <mxCell id="D2Z485YcAmYLCviWvFQb-7" style="edgeStyle=orthogonalEdgeStyle;rounded=0;orthogonalLoop=1;jettySize=auto;html=1;" edge="1" parent="1" source="D2Z485YcAmYLCviWvFQb-2" target="D2Z485YcAmYLCviWvFQb-4">
          <mxGeometry relative="1" as="geometry" />
        </mxCell>
        <mxCell id="D2Z485YcAmYLCviWvFQb-2" value="Leon" style="rounded=0;whiteSpace=wrap;html=1;" vertex="1" parent="1">
          <mxGeometry x="430" y="330" width="120" height="60" as="geometry" />
        </mxCell>
        <mxCell id="D2Z485YcAmYLCviWvFQb-9" style="edgeStyle=orthogonalEdgeStyle;rounded=0;orthogonalLoop=1;jettySize=auto;html=1;entryX=1;entryY=0.5;entryDx=0;entryDy=0;" edge="1" parent="1" source="D2Z485YcAmYLCviWvFQb-3" target="D2Z485YcAmYLCviWvFQb-4">
          <mxGeometry relative="1" as="geometry" />
        </mxCell>
        <mxCell id="D2Z485YcAmYLCviWvFQb-3" value="Tigre" style="rounded=0;whiteSpace=wrap;html=1;" vertex="1" parent="1">
          <mxGeometry x="240" y="330" width="120" height="60" as="geometry" />
        </mxCell>
        <mxCell id="D2Z485YcAmYLCviWvFQb-4" value="" style="triangle;whiteSpace=wrap;html=1;rotation=90;" vertex="1" parent="1">
          <mxGeometry x="370" y="230" width="60" height="80" as="geometry" />
        </mxCell>
        <mxCell id="D2Z485YcAmYLCviWvFQb-10" value="" style="edgeStyle=orthogonalEdgeStyle;rounded=0;orthogonalLoop=1;jettySize=auto;html=1;" edge="1" parent="1" source="D2Z485YcAmYLCviWvFQb-5" target="D2Z485YcAmYLCviWvFQb-1">
          <mxGeometry relative="1" as="geometry" />
        </mxCell>
        <mxCell id="D2Z485YcAmYLCviWvFQb-5" value="ISA" style="text;html=1;strokeColor=none;fillColor=none;align=center;verticalAlign=middle;whiteSpace=wrap;rounded=0;" vertex="1" parent="1">
          <mxGeometry x="370" y="240" width="60" height="30" as="geometry" />
        </mxCell>
      </root>
    </mxGraphModel>
  </diagram>
  <diagram id="R3ptt1OaDNUDF2lHi_fu" name="Ejemplo 4">
    <mxGraphModel dx="880" dy="437" grid="1" gridSize="10" guides="1" tooltips="1" connect="1" arrows="1" fold="1" page="1" pageScale="1" pageWidth="827" pageHeight="1169" math="0" shadow="0">
      <root>
        <mxCell id="0" />
        <mxCell id="1" parent="0" />
        <mxCell id="RvW_lyP9XCZUsAmKuHds-5" style="edgeStyle=orthogonalEdgeStyle;rounded=0;orthogonalLoop=1;jettySize=auto;html=1;entryX=0;entryY=0.5;entryDx=0;entryDy=0;" edge="1" parent="1" source="RvW_lyP9XCZUsAmKuHds-1" target="RvW_lyP9XCZUsAmKuHds-4">
          <mxGeometry relative="1" as="geometry">
            <Array as="points">
              <mxPoint x="390" y="315" />
            </Array>
          </mxGeometry>
        </mxCell>
        <mxCell id="RvW_lyP9XCZUsAmKuHds-1" value="Persona" style="rounded=0;whiteSpace=wrap;html=1;" vertex="1" parent="1">
          <mxGeometry x="350" y="200" width="120" height="60" as="geometry" />
        </mxCell>
        <mxCell id="RvW_lyP9XCZUsAmKuHds-6" value="" style="edgeStyle=orthogonalEdgeStyle;rounded=0;orthogonalLoop=1;jettySize=auto;html=1;" edge="1" parent="1" source="RvW_lyP9XCZUsAmKuHds-2" target="RvW_lyP9XCZUsAmKuHds-4">
          <mxGeometry relative="1" as="geometry" />
        </mxCell>
        <mxCell id="RvW_lyP9XCZUsAmKuHds-2" value="Banco" style="rounded=0;whiteSpace=wrap;html=1;" vertex="1" parent="1">
          <mxGeometry x="480" y="200" width="120" height="60" as="geometry" />
        </mxCell>
        <mxCell id="RvW_lyP9XCZUsAmKuHds-7" style="edgeStyle=orthogonalEdgeStyle;rounded=0;orthogonalLoop=1;jettySize=auto;html=1;entryX=1;entryY=0.5;entryDx=0;entryDy=0;" edge="1" parent="1" source="RvW_lyP9XCZUsAmKuHds-3" target="RvW_lyP9XCZUsAmKuHds-4">
          <mxGeometry relative="1" as="geometry">
            <Array as="points">
              <mxPoint x="670" y="315" />
            </Array>
          </mxGeometry>
        </mxCell>
        <mxCell id="RvW_lyP9XCZUsAmKuHds-3" value="Compañia" style="rounded=0;whiteSpace=wrap;html=1;" vertex="1" parent="1">
          <mxGeometry x="610" y="200" width="120" height="60" as="geometry" />
        </mxCell>
        <mxCell id="RvW_lyP9XCZUsAmKuHds-9" value="" style="edgeStyle=orthogonalEdgeStyle;rounded=0;orthogonalLoop=1;jettySize=auto;html=1;" edge="1" parent="1" source="RvW_lyP9XCZUsAmKuHds-4" target="RvW_lyP9XCZUsAmKuHds-8">
          <mxGeometry relative="1" as="geometry" />
        </mxCell>
        <mxCell id="RvW_lyP9XCZUsAmKuHds-4" value="U" style="ellipse;whiteSpace=wrap;html=1;aspect=fixed;" vertex="1" parent="1">
          <mxGeometry x="515" y="290" width="50" height="50" as="geometry" />
        </mxCell>
        <mxCell id="RvW_lyP9XCZUsAmKuHds-8" value="Dueño" style="rounded=0;whiteSpace=wrap;html=1;" vertex="1" parent="1">
          <mxGeometry x="480" y="430" width="120" height="60" as="geometry" />
        </mxCell>
        <mxCell id="RvW_lyP9XCZUsAmKuHds-10" value="" style="shape=requiredInterface;html=1;verticalLabelPosition=bottom;sketch=0;rotation=91;" vertex="1" parent="1">
          <mxGeometry x="535" y="370" width="10" height="20" as="geometry" />
        </mxCell>
      </root>
    </mxGraphModel>
  </diagram>
  <diagram id="BIc1E6oODIIsZyQtCFRs" name="EJemplo 5">
    <mxGraphModel dx="880" dy="437" grid="1" gridSize="10" guides="1" tooltips="1" connect="1" arrows="1" fold="1" page="1" pageScale="1" pageWidth="827" pageHeight="1169" math="0" shadow="0">
      <root>
        <mxCell id="0" />
        <mxCell id="1" parent="0" />
      </root>
    </mxGraphModel>
  </diagram>
</mxfile>
